<svg width="49" height="49" viewBox="0 0 49 49" fill="none" xmlns="http://www.w3.org/2000/svg">
<g clip-path="url(#clip0_28_817)">
<path d="M37.5156 0H11.4844C5.14173 0 0 5.14173 0 11.4844V37.5156C0 43.8583 5.14173 49 11.4844 49H37.5156C43.8583 49 49 43.8583 49 37.5156V11.4844C49 5.14173 43.8583 0 37.5156 0Z" fill="#F4F2ED"/>
<path d="M7.96939 38.8629H14.0596V24.0724L5.35938 17.5474V36.2529C5.35938 37.6971 6.52963 38.8629 7.96939 38.8629Z" fill="#4285F4"/>
<path d="M34.9402 38.8631H41.0306C42.4748 38.8631 43.6406 37.6929 43.6406 36.2531V17.5474L34.9402 24.0726" fill="#34A853"/>
<path d="M34.9402 12.7622V24.0725L43.6406 17.5475V14.067C43.6406 10.8393 39.956 8.99911 37.3765 10.935" fill="#FBBC04"/>
<path d="M14.0598 24.0723V12.7621L24.5 20.592L34.9403 12.7617V24.0721L24.5 31.9025" fill="#EA4335"/>
<path d="M5.35938 14.067V17.5471L14.0596 24.0724V12.7622L11.6235 10.935C9.03954 8.99911 5.35938 10.8393 5.35938 14.067Z" fill="#C5221F"/>
</g>
<defs>
<clipPath id="clip0_28_817">
<rect width="49" height="49" fill="white"/>
</clipPath>
</defs>
</svg>
