<svg width="49" height="49" viewBox="0 0 49 49" fill="none" xmlns="http://www.w3.org/2000/svg">
<g clip-path="url(#clip0_28_810)">
<path d="M1.04657 24.2069C1.04542 28.3239 2.1295 32.3438 4.19087 35.887L0.849426 47.993L13.3348 44.7446C16.7881 46.61 20.6572 47.5874 24.589 47.5877H24.5994C37.5791 47.5877 48.1449 37.1072 48.1504 24.2254C48.1529 17.9832 45.7053 12.1134 41.2584 7.69735C36.8122 3.28165 30.8989 0.848552 24.5984 0.845703C11.6172 0.845703 1.05212 11.3256 1.04676 24.2069" fill="url(#paint0_linear_28_810)"/>
<path d="M0.205835 24.1992C0.204495 28.4643 1.32743 32.6279 3.4623 36.298L0.0010376 48.838L12.9341 45.4731C16.4975 47.401 20.5096 48.4175 24.5922 48.419H24.6027C38.0481 48.419 48.9934 37.5615 48.9992 24.2185C49.0015 17.7521 46.4658 11.6713 41.86 7.09702C37.2536 2.52331 31.1288 0.00265891 24.6027 0C11.155 0 0.211194 10.856 0.205835 24.1992ZM7.90792 35.6659L7.42502 34.9053C5.39504 31.7024 4.32359 28.0012 4.32512 24.2007C4.32933 13.1102 13.4254 4.08713 24.6104 4.08713C30.0269 4.08941 35.1174 6.18464 38.9461 9.98612C42.7747 13.788 44.8814 18.8418 44.8801 24.217C44.8751 35.3075 35.7789 44.3317 24.6027 44.3317H24.5947C20.9556 44.3298 17.3866 43.3601 14.274 41.5275L13.5333 41.0916L5.85861 43.0883L7.90792 35.6659Z" fill="url(#paint1_linear_28_810)"/>
<path d="M18.505 14.0822C18.0483 13.075 17.5677 13.0547 17.1334 13.037C16.7778 13.0218 16.3713 13.023 15.9651 13.023C15.5586 13.023 14.8981 13.1747 14.3398 13.7796C13.7809 14.3851 12.2061 15.8483 12.2061 18.8242C12.2061 21.8 14.3905 24.6762 14.695 25.0802C14.9999 25.4834 18.9121 31.7858 25.1081 34.2103C30.2575 36.2252 31.3054 35.8245 32.423 35.7235C33.5407 35.6228 36.0297 34.2607 36.5375 32.8482C37.0456 31.436 37.0456 30.2254 36.8933 29.9724C36.7409 29.7204 36.3344 29.569 35.7248 29.2667C35.1152 28.9643 32.1181 27.5008 31.5594 27.2989C31.0005 27.0972 30.5941 26.9965 30.1876 27.6022C29.7811 28.2069 28.6137 29.569 28.2579 29.9724C27.9025 30.3768 27.5467 30.4271 26.9373 30.1245C26.3273 29.821 24.3641 29.1831 22.035 27.1226C20.2228 25.5193 18.9994 23.5394 18.6438 22.9337C18.2881 22.329 18.6057 22.0012 18.9113 21.6998C19.1852 21.4287 19.5211 20.9934 19.8262 20.6404C20.1302 20.2871 20.2316 20.0351 20.4349 19.6317C20.6383 19.2279 20.5365 18.8747 20.3843 18.5721C20.2316 18.2696 19.047 15.2781 18.505 14.0822Z" fill="white"/>
</g>
<defs>
<linearGradient id="paint0_linear_28_810" x1="2365.9" y1="4715.58" x2="2365.9" y2="0.845703" gradientUnits="userSpaceOnUse">
<stop stop-color="#1FAF38"/>
<stop offset="1" stop-color="#60D669"/>
</linearGradient>
<linearGradient id="paint1_linear_28_810" x1="2449.91" y1="4883.8" x2="2449.91" y2="0" gradientUnits="userSpaceOnUse">
<stop stop-color="#F9F9F9"/>
<stop offset="1" stop-color="white"/>
</linearGradient>
<clipPath id="clip0_28_810">
<rect width="49" height="49" fill="white"/>
</clipPath>
</defs>
</svg>
